# xmcd
#
# Track frame offsets:
#	150
#	13023
#	27006
#	42876
#	53658
#	66395
#	79387
#	92977
#	110959
#	122433
#	138223
#	157528
#	175375
#	196341
#	218029
#	230191
#	243505
#	257915
#	269254
#	282455
#	295108
#	312559
#	326118
#	341350
#
# Disc length: 4759 seconds
#
# Revision: 0
# Processed by: cddbd v1.5.2PL0 Copyright (c) Steve Scherf et al.
# Submitted via: EasyCDDAExtractor 12.0.4.1
#
DISCID=69129518
DTITLE=Tucker, Tanya - The Ultimate Collection
DYEAR=2009
DGENRE=Country
TTITLE0=San Antonio Stroll
TTITLE1=Lizzie And The Rainman
TTITLE2=I´m Not Lisa
TTITLE3=Son Of A Preacher Man
TTITLE4=Don´t Believe My Heart Can Stand Another You
TTITLE5=Here´s Some Love
TTITLE6=You´ve Got Me To Hold On To
TTITLE7=My Cowboys Getting Old
TTITLE8=It´s A Cowboy - Lovin´ Night
TTITLE9=Dancing The Night Away
TTITLE10=Lover Goodbye
TTITLE11=I´m The Singer, You´re The Song
TTITLE12=Texas
TTITLE13=Angel From Montgomery
TTITLE14=Ridin´ Rainbows
TTITLE15=Wait Till Daddy Finds Out
TTITLE16=By Day By Day
TTITLE17=Pecos Promenade
TTITLE18=Dream Lover
TTITLE19=Can I See You Tonight
TTITLE20=Love Knows We Tried
TTITLE21=Should I Do It
TTITLE22=Rodeo Girl
TTITLE23=Delta Dawn
EXTD=
EXTT0=
EXTT1=
EXTT2=
EXTT3=
EXTT4=
EXTT5=
EXTT6=
EXTT7=
EXTT8=
EXTT9=
EXTT10=
EXTT11=
EXTT12=
EXTT13=
EXTT14=
EXTT15=
EXTT16=
EXTT17=
EXTT18=
EXTT19=
EXTT20=
EXTT21=
EXTT22=
EXTT23=
PLAYORDER=
